<?xml version="1.0" encoding="utf-8"?>
<!-- Generator: Adobe Illustrator 18.0.0, SVG Export Plug-In . SVG Version: 6.00 Build 0)  -->
<!DOCTYPE svg PUBLIC "-//W3C//DTD SVG 1.1//EN" "http://www.w3.org/Graphics/SVG/1.1/DTD/svg11.dtd">
<svg version="1.1" id="Arrow_1_" xmlns="http://www.w3.org/2000/svg" xmlns:xlink="http://www.w3.org/1999/xlink" x="0px" y="0px"
	 width="500px" height="500px" viewBox="0 0 500 500" enable-background="new 0 0 500 500" xml:space="preserve">
  <metadata>
    <?xpacket begin="﻿" id="W5M0MpCehiHzreSzNTczkc9d"?>
    <x:xmpmeta xmlns:x="adobe:ns:meta/" x:xmptk="Adobe XMP Core 5.6-c011 79.156380, 2014/06/19-23:40:37        ">
     <rdf:RDF xmlns:rdf="http://www.w3.org/1999/02/22-rdf-syntax-ns#">
      <rdf:Description rdf:about=""
        xmlns:xmpMM="http://ns.adobe.com/xap/1.0/mm/"
        xmlns:stEvt="http://ns.adobe.com/xap/1.0/sType/ResourceEvent#"
        xmlns:xmp="http://ns.adobe.com/xap/1.0/"
        xmlns:xmpRights="http://ns.adobe.com/xap/1.0/rights/"
        xmlns:dc="http://purl.org/dc/elements/1.1/"
       xmpMM:DocumentID="xmp.did:4ac1ebf296ec29bf85f99356d655c506"
       xmpMM:OriginalDocumentID="xmp.did:4ac1ebf296ec29bf85f99356d655c506"
       xmpMM:InstanceID="xmp.iid:4ac1ebf296ec29bf85f99356d655c506"
       xmp:ModifyDate="2015-04-15T14:39:09+02:00"
       xmp:MetadataDate="2015-04-15T14:39:09+02:00"
       xmpRights:Marked="True"
       xmpRights:WebStatement="http://www.adobe.com/legal/general-terms.html">
       <xmpMM:History>
        <rdf:Seq>
         <rdf:li
          stEvt:action="saved"
          stEvt:instanceID="xmp.iid:4ac1ebf296ec29bf85f99356d655c506"
          stEvt:when="2015-04-15T14:39:09+02:00"/>
        </rdf:Seq>
       </xmpMM:History>
       <xmpRights:UsageTerms>
        <rdf:Alt>
         <rdf:li xml:lang="x-default">This work is licensed under the Adobe General Terms of Use http://www.adobe.com/legal/general-terms.html.</rdf:li>
        </rdf:Alt>
       </xmpRights:UsageTerms>
       <dc:publisher>
        <rdf:Bag>
         <rdf:li>Adobe Systems Incorporated</rdf:li>
        </rdf:Bag>
       </dc:publisher>
      </rdf:Description>
     </rdf:RDF>
    </x:xmpmeta>
    <?xpacket end="r"?>
  </metadata>
<g>
	<g id="Shape_1_copy_3_3_">
		<ellipse fill="#3F91CB" cx="250" cy="250" rx="249.9" ry="250"/>
	</g>
	<g id="GitHub_icon">
		<path fill="#FFFFFF" d="M250.6,103.2c-81.3,0-147.2,65.9-147.2,147.2c0,69.2,47.7,127.2,112,142.9c0-18.2-0.1-52.8-0.1-54.1
			c-0.3-0.2-27.9,16-42-12.3c-1.7-3.5-5.1-15.2-13.7-21.7c-0.3-0.3-6.6-3.5-7.2-6.7c-0.1-0.4,0.4-1.4,1-1.6
			c0.6-0.2,11.1-4.5,22.7,10.2c3.5,4.9,11.4,23.8,39.1,12.2c0.7-2.9,1.3-7.7,7.3-13.1c-41.2-4.9-56.3-19-62.1-54.2
			c-3.6-24,3.4-44,13.9-53.8c-1.6-2.1-6.8-19.6,1.3-38.2c8.9-1.8,25.1,4.6,39.4,14.9c20.1-7.3,57.9-5.4,71.4,0
			c6.4-5.3,29.4-17.7,39.2-14.8c2.9,7.4,7.1,25.2,1.3,38.2c12.8,13.2,16.4,30.2,14.1,51.2c-2.8,31.7-18.9,53.1-62.5,56.8
			c7.3,5.1,13.9,12.2,13.9,24.1c0,12.8,0,43.6,0,61.2c60.9-18,105.4-74.4,105.4-141.2C397.8,169.2,331.9,103.2,250.6,103.2z"/>
	</g>
</g>
</svg>
