<svg id="front" xmlns="http://www.w3.org/2000/svg" viewBox="0 0 134.42 179.95"><defs><style>.cls-1{fill:#fff;}.cls-2{fill:#66bb6a;}.cls-3{fill:#fce951;}</style></defs><title>icon</title><path class="cls-1" d="M88.46,54.11c-5,0-13-2.93-17.15-4.57q-1.26,0-2.54,0c-21.27,0-37.3-9.41-37.3-21.89S47.51,5.8,68.77,5.8s37.3,9.41,37.3,21.89c0,5.92-3.78,11.42-10.5,15.43.11.9.26,2,.47,3.18a6.44,6.44,0,0,1-1.38,5.33,7.69,7.69,0,0,1-6.2,2.48Z" transform="translate(-29.72 -5.8)"/><path class="cls-2" d="M101.13,27.69c0-9.36-14.49-16.95-32.36-16.95S36.42,18.33,36.42,27.69,50.9,44.64,68.77,44.64c1.15,0,2.28,0,3.39-.09,2.86,1.17,19.9,7.93,19,2.58a57.38,57.38,0,0,1-.81-6.83C97,37.19,101.13,32.7,101.13,27.69Z" transform="translate(-29.72 -5.8)"/><path class="cls-1" d="M51.54,185.75a28,28,0,0,1-4.39-.34,4.95,4.95,0,0,1-2.71-8.4A106.84,106.84,0,0,0,56.61,162.6l.13-.19c-17-11.54-27-29.55-27-49.06,0-33.75,30.15-61.21,67.21-61.21s67.21,27.46,67.21,61.21S134,174.55,96.93,174.55a74.21,74.21,0,0,1-8.25-.47,163,163,0,0,1-23.54,9.28A48.44,48.44,0,0,1,51.54,185.75Z" transform="translate(-29.72 -5.8)"/><path class="cls-3" d="M96.93,57.09c-34.39,0-62.26,25.19-62.26,56.26,0,19.92,11.47,37.4,28.75,47.4a16.88,16.88,0,0,1-.76,1.57,34.09,34.09,0,0,1-2,3.11,111.53,111.53,0,0,1-12.73,15.09c5.28.84,10.67-.36,15.79-1.89A161.25,161.25,0,0,0,87.84,169a69.32,69.32,0,0,0,9.09.6c34.39,0,62.26-25.19,62.26-56.26S131.32,57.09,96.93,57.09Z" transform="translate(-29.72 -5.8)"/></svg>