<?xml version="1.0" encoding="utf-8"?>
<!-- Generator: Adobe Illustrator 18.0.0, SVG Export Plug-In . SVG Version: 6.00 Build 0)  -->
<!DOCTYPE svg PUBLIC "-//W3C//DTD SVG 1.1//EN" "http://www.w3.org/Graphics/SVG/1.1/DTD/svg11.dtd">
<svg version="1.1" id="Arrow_1_" xmlns="http://www.w3.org/2000/svg" xmlns:xlink="http://www.w3.org/1999/xlink" x="0px" y="0px"
	 width="500px" height="500px" viewBox="0 0 500 500" enable-background="new 0 0 500 500" xml:space="preserve">
  <metadata>
    <?xpacket begin="﻿" id="W5M0MpCehiHzreSzNTczkc9d"?>
    <x:xmpmeta xmlns:x="adobe:ns:meta/" x:xmptk="Adobe XMP Core 5.6-c011 79.156380, 2014/06/19-23:40:37        ">
     <rdf:RDF xmlns:rdf="http://www.w3.org/1999/02/22-rdf-syntax-ns#">
      <rdf:Description rdf:about=""
        xmlns:xmpMM="http://ns.adobe.com/xap/1.0/mm/"
        xmlns:stEvt="http://ns.adobe.com/xap/1.0/sType/ResourceEvent#"
        xmlns:xmp="http://ns.adobe.com/xap/1.0/"
        xmlns:xmpRights="http://ns.adobe.com/xap/1.0/rights/"
        xmlns:dc="http://purl.org/dc/elements/1.1/"
       xmpMM:DocumentID="xmp.did:8134fc02b71310c5b0c59a1c9b92a23c"
       xmpMM:OriginalDocumentID="xmp.did:8134fc02b71310c5b0c59a1c9b92a23c"
       xmpMM:InstanceID="xmp.iid:8134fc02b71310c5b0c59a1c9b92a23c"
       xmp:ModifyDate="2015-04-20T11:42:31+02:00"
       xmp:MetadataDate="2015-04-20T11:42:31+02:00"
       xmpRights:Marked="True"
       xmpRights:WebStatement="http://www.adobe.com/legal/general-terms.html">
       <xmpMM:History>
        <rdf:Seq>
         <rdf:li
          stEvt:action="saved"
          stEvt:instanceID="xmp.iid:8134fc02b71310c5b0c59a1c9b92a23c"
          stEvt:when="2015-04-20T11:42:31+02:00"/>
        </rdf:Seq>
       </xmpMM:History>
       <xmpRights:UsageTerms>
        <rdf:Alt>
         <rdf:li xml:lang="x-default">This work is licensed under the Adobe General Terms of Use http://www.adobe.com/legal/general-terms.html.</rdf:li>
        </rdf:Alt>
       </xmpRights:UsageTerms>
       <dc:publisher>
        <rdf:Bag>
         <rdf:li>Adobe Systems Incorporated</rdf:li>
        </rdf:Bag>
       </dc:publisher>
      </rdf:Description>
     </rdf:RDF>
    </x:xmpmeta>
    <?xpacket end="r"?>
  </metadata>
<g>
	<g id="Shape_1_copy_3_21_">
		<ellipse fill="#FF8E2E" cx="250" cy="250" rx="249.9" ry="250"/>
	</g>
	<g id="Shape_147">
		<path fill="#FFFFFF" d="M258.8,244.4c-35.3-33.1-98.4-40.9-98.4-40.9c-7.1,0-12.9,4.9-12.9,12.1v22.5c0,7.1,5.8,12.1,12.9,12.1
			c0,0,40.6,1.1,64.9,23.7c32.2,29.8,31.3,71.2,31.3,71.2c0,7.1,3.4,12.9,10.5,12.9H292c7.1,0,8.8-5.8,8.8-12.9
			C300.9,345,294.9,278.2,258.8,244.4z M180.9,294.8c-17.6,0-31.9,14.3-31.9,31.9c0,17.7,14.3,31.9,31.9,31.9
			c17.6,0,31.9-14.3,31.9-31.9C212.8,309.1,198.6,294.8,180.9,294.8z M322,199.6c-55.5-67-161.6-74.2-161.6-74.2
			c-7.1,0-12.9,5-12.9,12.1V160c0,7.1,5.8,12.1,12.9,12.1c0,0,75.8,2.4,118.5,53c58.6,60.3,54.1,120.5,54.1,120.5
			c0,7.1,5.8,12.9,12.9,12.9h24.9c7.1,0,11.3-5.8,11.3-12.9C382.2,345.5,376.9,250.7,322,199.6z"/>
	</g>
</g>
</svg>
