<?xml version="1.0" encoding="utf-8"?>
<!-- Generator: Adobe Illustrator 18.0.0, SVG Export Plug-In . SVG Version: 6.00 Build 0)  -->
<!DOCTYPE svg PUBLIC "-//W3C//DTD SVG 1.1//EN" "http://www.w3.org/Graphics/SVG/1.1/DTD/svg11.dtd">
<svg version="1.1" id="Arrow_1_" xmlns="http://www.w3.org/2000/svg" xmlns:xlink="http://www.w3.org/1999/xlink" x="0px" y="0px"
	 width="500px" height="500px" viewBox="0 0 500 500" enable-background="new 0 0 500 500" xml:space="preserve">
  <metadata>
    <?xpacket begin="﻿" id="W5M0MpCehiHzreSzNTczkc9d"?>
    <x:xmpmeta xmlns:x="adobe:ns:meta/" x:xmptk="Adobe XMP Core 5.6-c011 79.156380, 2014/06/19-23:40:37        ">
     <rdf:RDF xmlns:rdf="http://www.w3.org/1999/02/22-rdf-syntax-ns#">
      <rdf:Description rdf:about=""
        xmlns:xmpMM="http://ns.adobe.com/xap/1.0/mm/"
        xmlns:stEvt="http://ns.adobe.com/xap/1.0/sType/ResourceEvent#"
        xmlns:xmp="http://ns.adobe.com/xap/1.0/"
        xmlns:xmpRights="http://ns.adobe.com/xap/1.0/rights/"
        xmlns:dc="http://purl.org/dc/elements/1.1/"
       xmpMM:DocumentID="xmp.did:7214a8e4fe2bc0f489d0446f41dcf2ab"
       xmpMM:OriginalDocumentID="xmp.did:7214a8e4fe2bc0f489d0446f41dcf2ab"
       xmpMM:InstanceID="xmp.iid:7214a8e4fe2bc0f489d0446f41dcf2ab"
       xmp:ModifyDate="2015-04-23T17:36:19+02:00"
       xmp:MetadataDate="2015-04-23T17:36:19+02:00"
       xmpRights:Marked="True"
       xmpRights:WebStatement="http://www.adobe.com/legal/general-terms.html">
       <xmpMM:History>
        <rdf:Seq>
         <rdf:li
          stEvt:action="saved"
          stEvt:instanceID="xmp.iid:7214a8e4fe2bc0f489d0446f41dcf2ab"
          stEvt:when="2015-04-23T17:36:19+02:00"/>
        </rdf:Seq>
       </xmpMM:History>
       <xmpRights:UsageTerms>
        <rdf:Alt>
         <rdf:li xml:lang="x-default">This work is licensed under the Adobe General Terms of Use http://www.adobe.com/legal/general-terms.html.</rdf:li>
        </rdf:Alt>
       </xmpRights:UsageTerms>
       <dc:publisher>
        <rdf:Bag>
         <rdf:li>Adobe Systems Incorporated</rdf:li>
        </rdf:Bag>
       </dc:publisher>
      </rdf:Description>
     </rdf:RDF>
    </x:xmpmeta>
    <?xpacket end="r"?>
  </metadata>
<g>
	<g id="Shape_1_copy_3_30_">
		<ellipse fill="#00ACF0" cx="250" cy="250" rx="249.9" ry="250"/>
	</g>
	<g id="Shape_164">
		<path fill="#FFFFFF" d="M361.9,185.2c17.8-11.6,19.4-27.6,19.4-27.6c-5.8,8-31.4,12.2-31.4,12.2c-22-26-55-12.2-55-12.2
			c-38.8,13.8-33,58.8-33,58.8c-67.6-1.1-104.3-53-104.3-53c-20.2,42.4,13.9,68.1,13.9,68.1c-7.6,0.8-21.2-5.3-21.2-5.3
			c-0.5,39,39.8,52.7,39.8,52.7c-3.7,0.5-21,0.5-21,0.5c8.9,31.8,46.6,35,46.6,35c-36.7,27.6-73.4,22.8-73.4,22.8
			c36.2,27.6,72,24.6,96.4,21.2C298.8,350,331,306,331,306c42.4-54.6,28.3-100.7,35.1-103.4c0.1,0,0.2-0.1,0.3-0.2
			c7-3.2,23.2-23.7,23.2-23.7C378.1,185.2,361.9,185.2,361.9,185.2z"/>
	</g>
</g>
</svg>
